<?xml version="1.0" standalone="no"?>
<!DOCTYPE svg PUBLIC "-//W3C//DTD SVG 1.1//EN" "http://www.w3.org/Graphics/SVG/1.1/DTD/svg11.dtd" >
<svg xmlns="http://www.w3.org/2000/svg">
<metadata>
This is a custom SVG webfont generated by Font Squirrel.
Copyright   : Copyright c 2002 2005 Parachute wwwparachutegr  All rights reserved
Designer    : Panos Vassiliou
Foundry     : Parachute Worldwide
Foundry URL : httpwwwparachutegr
</metadata>
<defs>
<font id="PFDinTextCondProMedium" horiz-adv-x="952" >
<font-face units-per-em="2048" ascent="1536" descent="-512" />
<missing-glyph horiz-adv-x="468" />
<glyph unicode=" "  horiz-adv-x="468" />
<glyph unicode="&#x09;" horiz-adv-x="468" />
<glyph unicode="&#xa0;" horiz-adv-x="468" />
<glyph unicode="!" horiz-adv-x="532" d="M154 0v227h229v-227h-229zM154 1425h225l-21 -1042h-182z" />
<glyph unicode="&#x22;" horiz-adv-x="655" d="M98 993v432h174v-432h-174zM379 993v432h174v-432h-174z" />
<glyph unicode="#" horiz-adv-x="974" d="M25 434v156h176q8 72 41 256h-150v155h174l68 424h170l-68 -424h180q33 178 70 424h170l-72 -424h158v-155h-182l-41 -256h158v-156h-183q-35 -197 -69 -434h-170q35 197 69 434h-180q-35 -197 -70 -434h-172l72 434h-149zM369 590h182q4 37 43 256h-182z" />
<glyph unicode="$" d="M41 250l186 119q80 -139 207 -160v414q-190 70 -273 159.5t-83 245.5q0 166 97 277.5t259 126.5v147h92v-147q244 -20 351 -222l-170 -127q-63 106 -181 125v-370q205 -68 288 -166.5t83 -265.5q0 -184 -96 -293t-275 -121v-195h-92v195q-260 14 -393 258zM307 1034 q0 -100 127 -160v336q-59 -12 -93 -59t-34 -117zM526 211q137 23 138 186q0 74 -33 117t-105 74v-377z" />
<glyph unicode="%" horiz-adv-x="1474" d="M102 793v413q0 102 72 165t176 63q106 0 178 -61.5t72 -166.5v-413q0 -102 -72.5 -165t-177 -63t-176.5 63t-72 165zM270 -35l758 1495h152l-758 -1495h-152zM270 795q0 -35 22.5 -56.5t57.5 -21.5t56.5 21.5t21.5 56.5v409q0 35 -20.5 56.5t-57.5 21.5t-58.5 -21.5 t-21.5 -56.5v-409zM872 215v424q0 100 73 161.5t175 61.5q104 0 177 -61.5t73 -161.5v-424q0 -100 -72.5 -160.5t-177.5 -60.5q-102 0 -175 60.5t-73 160.5zM1040 219q0 -35 21.5 -54.5t58.5 -19.5q78 0 78 74v416q0 74 -78 74q-37 0 -58.5 -19.5t-21.5 -54.5v-416z" />
<glyph unicode="&#x26;" horiz-adv-x="1157" d="M111 358q0 236 231 418q-47 72 -69.5 109t-44 98t-21.5 121q0 147 91 240.5t251 93.5q223 0 340 -162q-51 -43 -154 -133q-82 94 -182 94q-61 0 -95 -39t-34 -92q0 -47 43 -134t90 -157t130 -187.5t110 -158.5q35 76 49 199l201 -23q-25 -211 -115 -364 q23 -39 106.5 -159t85.5 -122h-256l-80 113q-131 -125 -315 -125q-170 0 -266 104t-96 266zM324 369q0 -78 45 -128.5t125 -50.5q104 0 184 84l-225 334q-129 -112 -129 -239z" />
<glyph unicode="'" horiz-adv-x="448" d="M137 993v432h174v-432h-174z" />
<glyph unicode="(" horiz-adv-x="600" d="M106 626.5q0 448.5 336 868.5l131 -74q-117 -174 -181 -383t-64 -403q0 -205 65.5 -416t177.5 -383l-118 -86q-347 428 -347 876.5z" />
<glyph unicode=")" horiz-adv-x="600" d="M84 1421l131 74q336 -422 336 -870q0 -446 -346 -875q-6 4 -59.5 43t-59.5 43q113 172 178.5 382t65.5 417q0 193 -64.5 401.5t-181.5 384.5z" />
<glyph unicode="*" horiz-adv-x="804" d="M66 1114l51 158l221 -92q0 10 -10.5 122.5t-10.5 122.5h168l-22 -245q55 18 221 92l53 -158l-235 -59l162 -189l-138 -100l-125 211q-45 -61 -129 -211l-137 98l162 191q-12 2 -117.5 29.5t-113.5 29.5z" />
<glyph unicode="+" d="M39 516v180h346v353h182v-353h346v-180h-346v-354h-182v354h-346z" />
<glyph unicode="," horiz-adv-x="501" d="M115 -274l65 268h-59v270h254v-262l-135 -276h-125z" />
<glyph unicode="-" horiz-adv-x="800" d="M100 436v201h611v-201h-611z" />
<glyph unicode="." horiz-adv-x="493" d="M119 0v266h254v-266h-254z" />
<glyph unicode="/" horiz-adv-x="630" d="M-6 -86l448 1571h181l-451 -1571h-178z" />
<glyph unicode="0" d="M117 346v731q0 164 106.5 261.5t259.5 97.5q156 0 262.5 -97.5t106.5 -261.5v-731q0 -164 -107.5 -260t-261 -96t-260 96t-106.5 260zM342 348q0 -68 39 -105.5t102.5 -37.5t102.5 38t39 105v729q0 68 -39 106t-102.5 38t-102.5 -38t-39 -106v-729z" />
<glyph unicode="1" d="M246 1024v244l211 157h213v-1425h-226v1171z" />
<glyph unicode="2" d="M90 1051q12 180 115.5 282.5t263.5 102.5q176 0 274.5 -93.5t98.5 -265.5q0 -154 -94 -305l-371 -555h452v-217h-735v203l461 686q49 76 49 180q0 63 -33.5 107.5t-103.5 44.5q-137 0 -150 -203z" />
<glyph unicode="3" d="M90 338l225 35q12 -170 150 -170q76 0 116 55t40 154q0 119 -40 175t-132 56h-89v191h91q166 0 165 190q0 82 -33.5 139.5t-109.5 57.5q-127 0 -145 -177q-131 23 -224 35q18 162 119 259.5t254 97.5q373 0 373 -404q0 -92 -37 -174t-119 -117q100 -45 131 -122.5 t31 -208.5q0 -193 -99.5 -306.5t-293.5 -113.5q-154 0 -256.5 88t-116.5 260z" />
<glyph unicode="4" d="M53 207v199l398 1019h237l-391 -1005h270v360h226v-360h104v-213h-104v-207h-226v207h-514z" />
<glyph unicode="5" d="M102 362l228 15q8 -174 147 -174q49 0 80 23.5t44 69.5t17.5 90t4.5 110q0 80 -7.5 128t-40 88t-94.5 40q-96 0 -139 -99h-203v772h695v-211h-484l4 -325h4q70 66 189 65q174 0 239.5 -116.5t65.5 -329.5q0 -260 -84 -389t-291 -129q-170 0 -266.5 86.5t-108.5 285.5z " />
<glyph unicode="6" d="M115 414q0 184 65 331q27 59 168 369l139 311h248q-10 -25 -73.5 -168t-119 -268t-75.5 -166l6 -4q45 20 98 21q133 0 209 -108.5t76 -287.5q0 -217 -93 -335.5t-288 -118.5q-182 0 -271 103.5t-89 320.5zM340 420q0 -113 30.5 -165t108.5 -52q76 0 111 55t35 178 q-2 104 -32 158.5t-106 54.5q-147 0 -147 -229z" />
<glyph unicode="7" d="M109 1032v393h739v-200l-430 -1225h-236l418 1210h-276v-178h-215z" />
<glyph unicode="8" d="M98 410q0 256 154 329v4q-139 74 -139 293q0 188 100 294t266 106q172 0 271.5 -99.5t99.5 -300.5q0 -215 -135 -293v-4q150 -68 149 -329q0 -217 -109.5 -318.5t-275.5 -101.5q-170 0 -275.5 100.5t-105.5 319.5zM326 428q0 -227 155 -227q154 0 154 231q0 213 -154 213 q-155 0 -155 -217zM340 1028q0 -195 141 -194q143 0 144 200q0 186 -144 187q-141 0 -141 -193z" />
<glyph unicode="9" d="M111 981q0 455 378 455q190 0 277.5 -106.5t87.5 -315.5q0 -186 -70 -336l-307 -678h-248l267 602l-7 4q-37 -18 -92 -18q-141 0 -213.5 106.5t-72.5 286.5zM340 985q0 -100 33 -154.5t112 -54.5q74 0 106 57.5t34 167.5q0 111 -30 166.5t-107.5 55.5t-112.5 -55.5 t-35 -182.5z" />
<glyph unicode=":" horiz-adv-x="493" d="M117 0v266h254v-266h-254zM117 569v267h254v-267h-254z" />
<glyph unicode=";" horiz-adv-x="497" d="M115 -274l65 268h-59v270h256v-262l-135 -276h-127zM121 569v267h254v-267h-254z" />
<glyph unicode="&#x3c;" d="M45 526v164l856 410v-205l-627 -287l625 -284v-207z" />
<glyph unicode="=" d="M37 326v180h876v-180h-876zM37 711v182h876v-182h-876z" />
<glyph unicode="&#x3e;" d="M47 895v205l856 -410v-164l-854 -409v207l625 284z" />
<glyph unicode="?" horiz-adv-x="925" d="M70 1047q18 186 129.5 287.5t275.5 101.5q186 0 285.5 -101.5t99.5 -275.5q0 -88 -21.5 -146.5t-70.5 -126.5q-10 -16 -65.5 -86.5t-79 -121t-23.5 -105.5v-92h-229v82q0 152 69 250q16 25 62.5 89t61 88.5t32.5 67.5t18 78q0 180 -151 181q-74 0 -118 -54.5t-48 -144.5 q-159 21 -227 29zM369 0v227h229v-227h-229z" />
<glyph unicode="@" horiz-adv-x="1695" d="M117 686q0 340 209 559t546 219q322 0 511.5 -189.5t189.5 -488.5q0 -252 -104.5 -384t-276.5 -132q-51 0 -116.5 34t-88.5 91h-6q-29 -49 -90.5 -79.5t-128.5 -30.5q-115 0 -179.5 66.5t-64.5 178.5q0 104 67.5 177t194.5 73h162v72q0 98 -125 98q-88 0 -137 -76 q-12 8 -61.5 37t-75.5 45q84 160 284 160q295 0 295 -254v-59q0 -45 -1 -135t-1 -135.5t25.5 -75t64.5 -29.5q193 0 193 356q0 240 -147.5 384.5t-378.5 144.5q-272 0 -432 -180.5t-160 -448.5q0 -291 161.5 -463t434.5 -172q213 0 399 96q8 -18 27.5 -68t31.5 -77 q-231 -100 -448 -100q-350 0 -562 204.5t-212 581.5zM696 541q0 -41 29 -68t86 -27q61 0 96 31t35 88v78h-129q-117 0 -117 -102z" />
<glyph unicode="A" horiz-adv-x="1077" d="M12 0l412 1425h225l414 -1425h-248l-80 307h-395q-33 -135 -84 -307h-244zM391 516h291l-72 285q-4 25 -33.5 151.5t-33.5 149.5h-11l-67 -299z" />
<glyph unicode="B" horiz-adv-x="1073" d="M129 0v1425h436q199 0 302.5 -103t103.5 -286q0 -207 -174 -286v-11q96 -29 145 -118t49 -199q0 -201 -108.5 -311.5t-294.5 -110.5h-459zM362 223h207q193 0 193 213q0 201 -195 201h-205v-414zM362 840h187q96 0 144 51t48 137q0 184 -194 184h-185v-372z" />
<glyph unicode="C" horiz-adv-x="1007" d="M96 442v553q0 182 114 311.5t325 129.5q166 0 276.5 -87t144.5 -229l-223 -73q-14 68 -64.5 115.5t-133.5 47.5q-98 0 -150.5 -62.5t-52.5 -143.5v-568q0 -96 52 -159.5t151 -63.5q76 0 129 44t67 118l223 -72q-33 -147 -145.5 -231t-273.5 -84q-213 0 -326 126.5 t-113 327.5z" />
<glyph unicode="D" horiz-adv-x="1099" d="M127 0v1425h436q307 0 395 -229q39 -100 39 -440v-93v-92q0 -20 -1 -73.5t-3 -77t-6 -61t-11 -63.5t-15 -50q-94 -246 -424 -246h-410zM362 217h168q125 0 178.5 65.5t53.5 194.5v418q0 313 -234 313h-166v-991z" />
<glyph unicode="E" horiz-adv-x="968" d="M129 0v1425h793v-217h-560v-381h482v-213h-482v-391h560v-223h-793z" />
<glyph unicode="F" horiz-adv-x="948" d="M129 0v1425h793v-217h-560v-387h482v-213h-482v-608h-233z" />
<glyph unicode="G" horiz-adv-x="1071" d="M102 442v553q0 184 113 312.5t324 128.5q166 0 277.5 -88t144.5 -230l-224 -69q-14 68 -64 114.5t-134 46.5q-98 0 -150.5 -62.5t-52.5 -143.5v-570q0 -96 52 -160.5t150.5 -64.5t152.5 57.5t54 143.5v168h-213v202h447v-338q0 -207 -118 -330.5t-322 -123.5 q-213 0 -325 126.5t-112 327.5z" />
<glyph unicode="H" horiz-adv-x="1126" d="M127 0v1425h235v-598h402v598h233v-1425h-233v616h-402v-616h-235z" />
<glyph unicode="I" horiz-adv-x="497" d="M131 0v1425h236v-1425h-236z" />
<glyph unicode="J" horiz-adv-x="862" d="M-10 152l164 149q31 -43 79 -67.5t93 -24.5q80 0 128 47t48 139v1030h233v-1036q0 -203 -112.5 -301t-290.5 -98q-221 0 -342 162z" />
<glyph unicode="K" horiz-adv-x="1093" d="M127 0v1425h233v-645h7l417 645h269l-381 -569q47 -94 424 -856h-262q-57 115 -161 330t-149 307q-20 -31 -76.5 -116t-87.5 -130v-391h-233z" />
<glyph unicode="L" horiz-adv-x="946" d="M129 0v1425h233v-1202h551v-223h-784z" />
<glyph unicode="M" horiz-adv-x="1370" d="M125 0v1425h223l201 -467l139 -344h8l138 347l196 464h225v-1425h-233v834h-8l-105 -267l-135 -311h-166l-139 322l-102 258l-9 -2v-834h-233z" />
<glyph unicode="N" horiz-adv-x="1185" d="M125 0v1425h215l315 -581l168 -320l8 2v899h234v-1425h-213l-336 612l-149 293l-7 -2v-903h-235z" />
<glyph unicode="O" horiz-adv-x="1056" d="M90 457v538q0 80 24.5 155t74 140.5t137.5 105.5t202 40q211 0 324 -131t113 -310v-563q0 -203 -121 -323.5t-316 -120.5q-221 0 -329.5 132t-108.5 337zM322 997l2 -544q0 -111 50 -176.5t156 -65.5q82 0 139.5 56.5t57.5 146.5v585q0 72 -47 141.5t-152 69.5 q-106 0 -156 -66.5t-50 -146.5z" />
<glyph unicode="P" horiz-adv-x="1028" d="M129 0v1425h430q205 0 320.5 -110.5t115.5 -329.5q0 -193 -109.5 -315.5t-314.5 -122.5h-209v-547h-233zM362 766h197q100 0 152.5 59.5t52.5 163.5q0 219 -207 219h-195v-442z" />
<glyph unicode="Q" horiz-adv-x="1073" d="M104 457v538q0 111 41 206t143.5 165t254.5 70q211 0 323.5 -130t112.5 -311v-563q0 -123 -47 -221l143 -117l-112 -133q-25 18 -72 55t-72 58q-111 -86 -276 -86q-221 0 -330 132t-109 337zM327 692q0 -20 -1 -43q0 -45 2 -97q2 -79 14 -135.5t34.5 -106.5t65.5 -75.5 t103 -25.5q47 0 86 24l-127 101l108 135l121 -94q6 14 10 47v579q0 72 -47 140.5t-153 68.5q-102 0 -154.5 -66.5t-52.5 -142.5v-32q0 -47 -4 -131.5t-5 -145.5z" />
<glyph unicode="R" horiz-adv-x="1081" d="M129 0v1425h459q184 0 296.5 -105.5t112.5 -303.5q0 -281 -227 -383l244 -633h-256l-213 594h-183v-594h-233zM362 805h205q94 0 147.5 54t53.5 157q0 197 -199 196h-207v-407z" />
<glyph unicode="S" horiz-adv-x="1032" d="M55 233l193 140q104 -162 272 -162q205 0 205 188q0 90 -62.5 138.5t-189.5 85.5q-207 66 -293 156.5t-86 250.5q0 180 119 293t313 113q293 0 418 -199l-178 -150q-88 127 -244 127q-90 0 -140 -49t-50 -126.5t70.5 -122t218.5 -91.5q195 -59 272.5 -157.5t77.5 -261.5 q0 -195 -121 -306.5t-334 -111.5q-316 -1 -461 245z" />
<glyph unicode="T" horiz-adv-x="882" d="M8 1212v213h862v-213h-315v-1212h-233v1212h-314z" />
<glyph unicode="U" horiz-adv-x="1095" d="M111 442v983h233v-989q0 -96 54.5 -159.5t152.5 -63.5q86 0 142.5 57.5t56.5 151.5v1003h237v-993q0 -203 -121 -323.5t-315 -120.5q-213 0 -326.5 127.5t-113.5 326.5z" />
<glyph unicode="V" horiz-adv-x="1019" d="M16 1425h250l150 -628l92 -426h8l90 426l150 628h248l-381 -1425h-228z" />
<glyph unicode="W" horiz-adv-x="1484" d="M23 1423h251q16 -96 51 -290.5t52 -292.5q12 -68 32.5 -200t22.5 -146h8q41 197 58 266q27 109 76 332t75 331h189l153 -667q29 -139 58 -267h8l51 340q92 547 100 594h252l-291 -1423h-208q-18 82 -70.5 293t-77.5 325l-68 297h-6q-45 -197 -65 -294q-25 -117 -78 -330 t-72 -291h-209z" />
<glyph unicode="X" horiz-adv-x="1013" d="M4 0q37 68 192.5 376t184.5 361l-352 688h266l209 -460l213 460h264l-354 -688l379 -737h-263l-237 506l-238 -506h-264z" />
<glyph unicode="Y" horiz-adv-x="974" d="M12 1427h254q10 -31 55.5 -148.5t67.5 -180.5q16 -43 47 -135l45 -136h13q20 59 96 275l125 323h248l-361 -843v-582h-229v582z" />
<glyph unicode="Z" horiz-adv-x="888" d="M53 0v209l518 1003h-495v213h762v-198l-519 -1006h519v-221h-785z" />
<glyph unicode="[" horiz-adv-x="536" d="M135 -205v1635h367v-160h-160v-1317h160v-158h-367z" />
<glyph unicode="\" horiz-adv-x="608" d="M2 1475h178l418 -1545h-176z" />
<glyph unicode="]" horiz-adv-x="536" d="M39 -49h158v1319h-158v160h364v-1637h-364v158z" />
<glyph unicode="^" d="M31 616l366 807h164q33 -80 186.5 -412.5t180.5 -394.5h-205l-244 566l-243 -566h-205z" />
<glyph unicode="_" horiz-adv-x="1024" d="M0 -141h1024v-156h-1024v156z" />
<glyph unicode="`" horiz-adv-x="897" d="M291 1468l203 78l172 -370l-129 -64z" />
<glyph unicode="a" horiz-adv-x="909" d="M70 295q0 137 88 224t260 87h176v92q0 55 -37 89t-113 34q-129 0 -176 -90q-131 78 -168 105q92 188 349 188q373 0 372 -315v-709h-227v78l-8 4q-70 -92 -224 -92q-145 0 -218.5 82t-73.5 223zM289 309q0 -51 35.5 -83.5t109.5 -32.5q70 0 115 35.5t45 107.5v98h-162 q-143 0 -143 -125z" />
<glyph unicode="b" horiz-adv-x="921" d="M96 0v1487h228v-565h6q37 49 95 75.5t112 26.5q82 0 141 -30.5t91 -77t50.5 -120t22.5 -135t4 -147.5q0 -72 -4 -127t-14.5 -119.5t-33 -110.5t-55 -87t-86 -61.5t-121.5 -20.5q-125 0 -204 100l-4 -4v-84h-228zM322 516q0 -78 3 -119t15 -94t44 -77.5t83 -24.5 q88 0 117.5 78.5t29.5 234.5q0 143 -29.5 219t-117.5 76q-47 0 -79 -25.5t-45 -73.5t-17 -91.5t-4 -102.5z" />
<glyph unicode="c" horiz-adv-x="827" d="M61 514q0 512 390 512q119 0 208 -55.5t127 -155.5q-12 -8 -96 -51t-94 -49q-45 100 -137 100q-100 0 -135 -76.5t-35 -226.5q0 -152 35.5 -232.5t132.5 -80.5q92 0 139 96q12 -8 97 -50t95 -48q-41 -98 -129 -152.5t-206 -54.5q-215 0 -303.5 136t-88.5 388z" />
<glyph unicode="d" horiz-adv-x="921" d="M78 508q0 106 12 188t44 162t98.5 123t166.5 43q121 0 195 -90h6v553h227v-1487h-227v82l-4 4q-76 -96 -207 -96q-82 0 -141.5 30.5t-91 75.5t-50 119t-23.5 138.5t-5 154.5zM309 514q0 -152 30 -232.5t118 -80.5q41 0 69.5 20.5t43 47t22.5 75.5t9 82t1 90 q0 61 -5 106.5t-18.5 91.5t-44 70.5t-77.5 24.5q-63 0 -97 -46t-42.5 -102.5t-8.5 -146.5z" />
<glyph unicode="e" horiz-adv-x="909" d="M74 506q0 520 383 520q377 0 377 -461v-119h-531q0 -252 160 -251q96 0 162 102q158 -84 186 -100q-45 -98 -137 -152.5t-207 -54.5q-211 0 -302 125t-91 391zM305 604h297q0 213 -149 213q-140 0 -148 -213z" />
<glyph unicode="f" horiz-adv-x="571" d="M35 834v180h106v203q0 133 76 202.5t197 69.5h133v-201h-90q-88 0 -88 -98v-176h178v-180h-178v-834h-228v834h-106z" />
<glyph unicode="g" horiz-adv-x="929" d="M72 502q0 86 4 148.5t22.5 138t51 122.5t92 80t143.5 33q129 0 207 -98l4 4v84h227v-1026q0 -190 -98 -300t-291 -110q-217 0 -332 168q12 8 86 67.5t84 67.5q66 -96 166 -96q74 0 116 45t42 125v145h-6q-37 -49 -95.5 -75.5t-111.5 -26.5q-82 0 -141.5 30.5t-92 76 t-51 117t-22.5 133t-4 147.5zM303 502q0 -141 28.5 -214t117.5 -73q150 0 149 285q0 76 -3 119t-16.5 94t-45 74.5t-82.5 23.5q-90 0 -119 -77.5t-29 -231.5z" />
<glyph unicode="h" horiz-adv-x="942" d="M102 0v1487h226v-569h8q86 106 217 106t211 -85t80 -226v-713h-228v651q0 74 -36.5 115t-104.5 41q-66 0 -106.5 -42t-40.5 -118v-647h-226z" />
<glyph unicode="i" horiz-adv-x="460" d="M117 0v1014h227v-1014h-227zM117 1212v213h227v-213h-227z" />
<glyph unicode="j" horiz-adv-x="477" d="M-23 -207h46q104 2 104 144v1079h227v-1135q0 -135 -83 -214t-230 -79h-64v205zM127 1212v213h227v-213h-227z" />
<glyph unicode="k" horiz-adv-x="946" d="M111 0v1485h225v-862h6l287 389h278l-309 -394l346 -618h-264l-234 434l-110 -151v-283h-225z" />
<glyph unicode="l" horiz-adv-x="499" d="M109 260v1227h227v-1182q0 -57 22.5 -81.5t71.5 -24.5h33v-203h-74q-139 0 -209.5 60.5t-70.5 203.5z" />
<glyph unicode="m" horiz-adv-x="1464" d="M109 0v1012h225v-99q2 0 4 -1t4 -1q82 113 217 113q164 0 244 -131h2q109 131 260 131q143 0 217 -94t74 -242v-688h-226v569q0 121 -28.5 179.5t-110.5 58.5q-84 0 -114.5 -58.5t-30.5 -177.5v-571h-228v569q0 123 -27.5 180.5t-111.5 57.5q-82 0 -113.5 -60.5 t-31.5 -181.5v-565h-225z" />
<glyph unicode="n" horiz-adv-x="940" d="M98 0v1014h228v-99h6q88 109 219 109q135 0 212 -83t77 -226v-715h-226v651q0 74 -39.5 115t-103.5 41q-66 0 -106.5 -43t-40.5 -117v-647h-226z" />
<glyph unicode="o" horiz-adv-x="919" d="M78 502q0 223 41 319q90 207 348 207q229 0 321 -182q49 -100 50 -342q0 -215 -43 -318q-78 -201 -349 -200q-209 0 -301 149q-67 111 -67 367zM303 492q0 -147 21 -205q35 -92 133 -92q113 0 141 116q14 55 14 209q0 143 -20 201q-35 98 -129 98q-102 0 -135 -92 q-25 -65 -25 -235z" />
<glyph unicode="p" horiz-adv-x="921" d="M94 -410v1424h225v-84h3q2 -2 4 -2q74 96 204 96q100 0 167 -44t96.5 -126t40 -162t10.5 -188q0 -106 -12.5 -187t-44 -161t-98 -123t-167.5 -43q-123 0 -196 92h-2l-5 -2v-490h-225zM319 496q0 -59 4.5 -101.5t17.5 -90.5t45 -73.5t79 -25.5t78.5 24.5t46 70.5t19.5 93 t5 111q0 152 -28.5 229.5t-118.5 77.5q-51 0 -83 -24.5t-45 -77t-16.5 -95t-3.5 -118.5z" />
<glyph unicode="q" horiz-adv-x="929" d="M82 498q0 106 11 188t42 165t97.5 128t164.5 45q127 0 207 -100l4 4v84h228v-1424h-228v502h-6q-37 -49 -95 -75.5t-112 -26.5q-80 0 -139 29.5t-92 74.5t-52.5 116t-24.5 136.5t-5 153.5zM315 498q0 -90 8.5 -146.5t42 -102.5t97.5 -46q147 0 147 293q0 76 -3 118.5 t-16 95t-45 77t-83 24.5q-88 0 -118 -81.5t-30 -231.5z" />
<glyph unicode="r" horiz-adv-x="692" d="M117 -2v1016h225v-117l6 -2q72 129 234 129q70 0 106 -27l-45 -221q-49 25 -113 25q-186 0 -186 -195v-608h-227z" />
<glyph unicode="s" horiz-adv-x="868" d="M53 186l168 123q70 -121 209 -121q70 0 110 31t40 84q0 51 -34 75.5t-110 41.5q-82 18 -137 38.5t-110.5 54.5t-83 86t-27.5 124q0 137 100.5 219t255.5 82q246 0 354 -172l-151 -131q-68 104 -197 104q-70 0 -102.5 -29.5t-32.5 -70.5q0 -61 164 -104q14 -4 20 -7 q158 -35 239 -103.5t81 -209.5q0 -143 -101.5 -228t-275.5 -85q-262 -1 -379 198z" />
<glyph unicode="t" horiz-adv-x="567" d="M41 834v180h106v266h222v-266h139v-180h-139v-519q0 -113 98 -112h49v-203h-115q-121 0 -187.5 69.5t-66.5 178.5v586h-106z" />
<glyph unicode="u" horiz-adv-x="946" d="M100 297v715h226v-652q0 -74 41 -115.5t102 -41.5q147 0 147 215v594h226v-1012h-226v94q-2 0 -4 1t-4 1q-80 -106 -217 -106t-214 82t-77 225z" />
<glyph unicode="v" horiz-adv-x="868" d="M10 1012h246q16 -57 56 -216t48 -192l74 -289h8q37 168 70 287q74 307 100 410h246q-16 -43 -157.5 -507t-155.5 -505h-221q-41 125 -156 504t-158 508z" />
<glyph unicode="w" horiz-adv-x="1335" d="M14 1014h242l66 -312q49 -238 77 -356h9q14 53 27.5 111.5t29.5 130t27 112.5q41 168 71 314h207l64 -283l94 -391h8q10 39 78 362q8 41 28.5 147.5t34.5 164.5h238q-180 -676 -273 -1014h-219l-61 236l-94 378h-6q-12 -49 -41 -170.5t-46 -181.5q-61 -238 -67 -262h-221 q-181 676 -273 1014z" />
<glyph unicode="x" horiz-adv-x="884" d="M12 0l305 518q-57 94 -160.5 270.5t-131.5 225.5h260l155 -324h2l156 324h256l-293 -498l307 -516h-258l-170 340l-170 -340h-258z" />
<glyph unicode="y" horiz-adv-x="845" d="M2 1014h242l98 -367l80 -311h8l78 311l98 367h238l-373 -1204q-70 -221 -289 -222h-76v195h54q90 0 123 125l36 131z" />
<glyph unicode="z" horiz-adv-x="796" d="M57 0v197l416 618h-387v199h651v-189l-415 -616h415v-209h-680z" />
<glyph unicode="{" horiz-adv-x="546" d="M29 539v147q141 12 141 223v281q0 106 60.5 170.5t148.5 64.5h143v-155h-63q-41 0 -62.5 -41t-21.5 -101v-258q0 -100 -43 -164.5t-96 -89.5v-4q139 -68 139 -256v-254q0 -154 84 -153h63v-154h-143q-90 0 -149.5 64.5t-59.5 169.5v260q0 121 -31.5 182.5t-109.5 67.5z " />
<glyph unicode="|" horiz-adv-x="477" d="M145 -367v1848h187v-1848h-187z" />
<glyph unicode="}" horiz-adv-x="546" d="M27 -51h65q84 0 84 153v254q0 188 139 256v4q-55 25 -97 89.5t-42 164.5v258q0 141 -84 142h-65v153h143q92 0 150.5 -64.5t58.5 -168.5v-254q0 -236 141 -250v-147q-78 -6 -109.5 -67.5t-31.5 -182.5v-260q0 -104 -60.5 -169t-148.5 -65h-143v154z" />
<glyph unicode="~" d="M43 510q106 207 270 207q66 0 172.5 -55.5t149.5 -55.5q39 0 70.5 24.5t74.5 82.5q43 -29 129 -82q-106 -211 -258 -211q-57 0 -169.5 55t-159.5 55q-76 0 -154 -100z" />
<glyph unicode="&#xa1;" horiz-adv-x="532" d="M154 991v228h229v-228h-229zM156 -207l18 1043h186l19 -1043h-223z" />
<glyph unicode="&#xa2;" d="M113 514q0 475 338 510v186h79v-186q106 -6 186.5 -61.5t119.5 -147.5q-61 -35 -189 -100q-41 88 -117 98v-616q72 10 117 96l191 -96q-39 -92 -119 -145.5t-189 -59.5v-211h-79v211q-186 16 -262 150t-76 372zM340 512q0 -262 111 -305v600q-63 -23 -87 -96.5 t-24 -198.5z" />
<glyph unicode="&#xa3;" d="M63 580v172h121q-10 45 -31.5 108.5t-34 114.5t-12.5 102q0 156 101.5 257.5t273.5 101.5q303 0 404 -285l-203 -86q-37 86 -83 121t-110 35q-53 0 -97 -42t-44 -112q0 -51 35 -155.5t45 -159.5h252v-172h-246q-6 -213 -94 -375h516v-205h-790v180q113 172 129 320 q4 27 8 80h-140z" />
<glyph unicode="&#xa4;" horiz-adv-x="1116" d="M66 317l137 136q-61 92 -62 217q0 104 64 213l-137 135l127 129l137 -137q102 66 215 65q115 0 217 -63l135 137q20 -23 127 -129l-137 -135q66 -109 65 -207q0 -119 -65 -225q27 -25 80 -76t57 -55l-129 -132q-14 16 -61.5 63.5t-71.5 74.5q-106 -66 -219 -66 q-115 0 -217 66l-135 -138q-61 66 -127 127zM313 668q0 -92 65.5 -160t156.5 -68q102 0 172.5 65.5t70.5 164t-67.5 165t-165.5 66.5q-94 0 -163 -67.5t-69 -165.5z" />
<glyph unicode="&#xa5;" d="M20 1425h242q117 -319 123 -340l86 -262h10q10 29 39 122t47 142q41 113 119 338h244l-283 -702h199v-129h-248l-10 -27v-96h258v-131h-258v-340h-223v340h-252v131h252v96l-11 27h-241v129h190z" />
<glyph unicode="&#xa6;" horiz-adv-x="477" d="M145 -371v863h187v-863h-187zM145 616v861h187v-861h-187z" />
<glyph unicode="&#xa7;" horiz-adv-x="933" d="M74 0l127 143q117 -111 248 -110q176 0 176 133q0 57 -55.5 102t-186.5 101q-152 66 -219.5 135t-67.5 192q0 66 35 124.5t90 92.5q-90 86 -90 205q0 139 100.5 228.5t255.5 89.5q209 0 361 -129q-76 -94 -123 -150q-113 90 -242 90q-63 0 -103 -33.5t-40 -78.5 q0 -29 14.5 -53.5t48 -48t59 -37t75.5 -38.5q170 -84 219 -122q113 -92 112 -236q0 -139 -114 -221q84 -90 84 -205q0 -147 -108.5 -237.5t-283.5 -90.5q-102 0 -201 42t-171 112zM299 707q0 -29 16.5 -52.5t50 -45t66.5 -37t87 -40t89 -40.5q55 31 56 114q0 29 -11.5 48.5 t-39 37t-57.5 30.5t-85 37.5t-102 47.5q-70 -30 -70 -100z" />
<glyph unicode="&#xa8;" horiz-adv-x="878" d="M145 1178v221h217v-221h-217zM516 1178v221h219v-221h-219z" />
<glyph unicode="&#xa9;" horiz-adv-x="1552" d="M100 698.5q0 315.5 185.5 520t486.5 204.5q299 0 485.5 -203.5t186.5 -521.5q0 -313 -186.5 -515.5t-485.5 -202.5q-303 0 -487.5 201.5t-184.5 517zM252 698q0 -248 144.5 -414.5t375.5 -166.5q236 0 378 166t142 415q0 254 -143 420t-377 166q-236 0 -378 -167 t-142 -419zM498 528v310q0 127 71.5 211t204.5 84q100 0 173 -56.5t95 -148.5l-145 -49q-10 47 -43 75.5t-78 28.5q-66 0 -95.5 -41t-29.5 -100v-312q0 -59 30 -101t93 -42q47 0 80 28.5t41 78.5l147 -50q-20 -94 -92.5 -149t-175.5 -55q-139 0 -207.5 80.5t-68.5 207.5z " />
<glyph unicode="&#xaa;" horiz-adv-x="628" d="M41 772q0 88 58.5 147.5t172.5 59.5h125v49q0 68 -90 68q-80 0 -114 -58l-130 78q74 135 250 135q260 0 260 -217v-463h-176v62q-55 -70 -151 -70q-205 0 -205 209zM209 782q0 -68 88 -67q100 0 100 84v53h-98q-90 0 -90 -70z" />
<glyph unicode="&#xab;" horiz-adv-x="1036" d="M92 479l254 402h219l-250 -402l250 -403h-219zM485 479l254 402h217l-247 -402l247 -403h-217z" />
<glyph unicode="&#xac;" d="M39 516v180h872v-534h-184v354h-688z" />
<glyph unicode="&#xad;" horiz-adv-x="800" d="M100 436v201h611v-201h-611z" />
<glyph unicode="&#xae;" horiz-adv-x="1052" d="M104 991.5q0 196.5 118 323.5t306.5 127t305 -127t116.5 -324q0 -195 -117.5 -321.5t-304.5 -126.5q-190 0 -307 126t-117 322.5zM205 993q0 -156 89 -256t234 -100q147 0 232.5 100.5t85.5 255.5q0 154 -87 256.5t-231 102.5q-147 0 -235 -102.5t-88 -256.5zM371 729 v526h164q78 0 122.5 -39.5t44.5 -117.5q0 -98 -79 -144q8 -18 47 -106t51 -119h-113q-27 70 -84 209h-53v-209h-100zM471 1028h61q72 0 72 70q0 59 -61 65h-72v-135z" />
<glyph unicode="&#xaf;" horiz-adv-x="897" d="M193 1188v194h555v-194h-555z" />
<glyph unicode="&#xb0;" horiz-adv-x="743" d="M102 1169.5q0 110.5 80 188.5t192.5 78t191.5 -78t79 -188.5t-79 -187.5t-191.5 -77t-192.5 77t-80 187.5zM248 1169q0 -51 38 -89t89 -38q53 0 90 37t37 90.5t-37 89t-90 35.5t-90 -36t-37 -89z" />
<glyph unicode="&#xb1;" d="M41 0v176h874v-176h-874zM43 590v178h344v340h182v-340h344v-178h-344v-334h-182v334h-344z" />
<glyph unicode="&#xb2;" horiz-adv-x="606" d="M47 1372q8 117 80 183.5t180 66.5q117 0 183.5 -58.5t66.5 -164.5q0 -94 -65 -185l-220 -299h277v-155h-498v137l297 399q33 45 33 99q0 31 -18.5 52t-57.5 21q-82 0 -88 -118z" />
<glyph unicode="&#xb3;" horiz-adv-x="608" d="M49 975q57 10 168 20q6 -94 84 -94q86 0 86 123q0 106 -90 106h-72v136h66q92 0 92 106q0 92 -80 92q-74 0 -86 -102l-166 24q14 104 85 168t173 64q129 0 188.5 -66.5t59.5 -175.5q0 -129 -86 -176q90 -41 90 -186q0 -123 -65.5 -193.5t-192.5 -70.5q-106 0 -174 57 t-80 168z" />
<glyph unicode="&#xb4;" horiz-adv-x="897" d="M328 1169l168 377l200 -76l-237 -358z" />
<glyph unicode="&#xb5;" horiz-adv-x="958" d="M111 -412v1424h227v-621q0 -88 37 -137t106 -49q88 0 117 64.5t29 193.5v549h225v-1012h-225v94h-6q-84 -104 -220 -104q-29 0 -63 14v-416h-227z" />
<glyph unicode="&#x3bc;" horiz-adv-x="958" d="M111 -412v1424h227v-621q0 -88 37 -137t106 -49q88 0 117 64.5t29 193.5v549h225v-1012h-225v94h-6q-84 -104 -220 -104q-29 0 -63 14v-416h-227z" />
<glyph unicode="&#xb6;" horiz-adv-x="1021" d="M59 1030q0 72 18.5 139.5t59.5 130t116 100.5t177 38q57 0 214 -1t296 -1v-164h-82v-1426h-168v1426h-129v-1426h-170v799h-4q-166 8 -247 119.5t-81 265.5z" />
<glyph unicode="&#xb7;" horiz-adv-x="493" d="M119 438v264h254v-264h-254z" />
<glyph unicode="&#xb8;" horiz-adv-x="899" d="M225 -389q8 16 20.5 50t18.5 50q61 -31 137 -30q35 0 58.5 19t23.5 48q0 70 -84 70q-16 0 -24 -2q-10 8 -28.5 20t-27.5 19l68 217q37 -2 111 -2l-52 -154q98 -10 142.5 -61.5t44.5 -112.5q0 -70 -52.5 -121t-154.5 -51q-123 0 -201 41z" />
<glyph unicode="&#xb9;" horiz-adv-x="507" d="M82 1341v175l143 98h156v-854h-172v670z" />
<glyph unicode="&#xba;" horiz-adv-x="634" d="M49 905q0 133 27 197q61 150 250 149q166 0 229 -125q33 -63 33 -217q0 -160 -37 -225q-68 -121 -238 -121q-162 0 -223 111q-41 71 -41 231zM223 897q0 -92 13 -123q20 -57 81 -57q59 0 82 55q14 33 15 146q0 78 -13 120q-18 57 -82 58q-51 0 -75 -41q-21 -41 -21 -158z " />
<glyph unicode="&#xbb;" horiz-adv-x="1036" d="M94 76l248 403l-248 402h217l254 -402l-254 -403h-217zM487 76l250 403l-250 402h218l253 -402l-253 -403h-218z" />
<glyph unicode="&#xbc;" horiz-adv-x="1474" d="M145 1153v174l144 98h155v-854h-172v670zM227 -35l758 1495h152l-758 -1495h-152zM768 121v131l252 600h178l-246 -584h146v199h166v-199h65v-147h-65v-123h-166v123h-330z" />
<glyph unicode="&#xbd;" horiz-adv-x="1474" d="M133 1153v174l143 98h156v-854h-172v670zM219 -35l758 1495h151l-757 -1495h-152zM831 610q8 117 80 183.5t181 66.5q117 0 183 -58.5t66 -162.5q0 -96 -65 -186l-219 -299h276v-156h-497v137l297 400q33 47 32 98q0 76 -75 76q-82 0 -89 -121z" />
<glyph unicode="&#xbe;" horiz-adv-x="1474" d="M100 791q57 10 168 20q6 -94 84 -94q86 0 86 123q0 106 -90 106h-72v135h66q92 0 92 107q0 92 -80 92q-74 0 -86 -102l-166 24q14 104 85 168t173 64q129 0 188.5 -67t59.5 -175q0 -129 -86 -176q90 -41 90 -187q0 -123 -65.5 -193.5t-192.5 -70.5q-104 0 -173 57.5 t-81 168.5zM309 -35l758 1495h152l-758 -1495h-152zM813 121v131l252 600h178l-246 -584h146v199h166v-199h65v-147h-65v-123h-166v123h-330z" />
<glyph unicode="&#xbf;" horiz-adv-x="911" d="M113 -49q0 88 21.5 146.5t70.5 125.5q10 16 65.5 87t79 121t23.5 106v92h229v-97q0 -143 -100 -284q-6 -8 -24.5 -35t-25 -35t-21.5 -29.5t-20 -32t-16.5 -28.5t-15.5 -29.5t-10.5 -27t-8.5 -28.5t-2 -28q0 -182 154 -182q72 0 116 54.5t48 144.5q14 -2 65.5 -9.5 t95.5 -12.5t66 -7q-18 -186 -129.5 -287.5t-275.5 -101.5q-186 0 -285.5 101.5t-99.5 275.5zM375 782v228h229v-228h-229z" />
<glyph unicode="&#xc0;" horiz-adv-x="1077" d="M12 0l412 1425h225l414 -1425h-248l-80 307h-395q-33 -135 -84 -307h-244zM176 1704l148 166l327 -258l-90 -113zM391 516h291l-72 285q-4 25 -33.5 151.5t-33.5 149.5h-11l-67 -299z" />
<glyph unicode="&#xc1;" horiz-adv-x="1077" d="M12 0l412 1425h225l414 -1425h-248l-80 307h-395q-33 -135 -84 -307h-244zM391 516h291l-72 285q-4 25 -33.5 151.5t-33.5 149.5h-11l-67 -299zM436 1597l326 254l141 -163l-379 -201z" />
<glyph unicode="&#xc2;" horiz-adv-x="1077" d="M12 0l412 1425h225l414 -1425h-248l-80 307h-395q-33 -135 -84 -307h-244zM182 1581l289 260h141l281 -258l-86 -92l-270 164l-271 -164zM391 516h291l-72 285q-4 25 -33.5 151.5t-33.5 149.5h-11l-67 -299z" />
<glyph unicode="&#xc3;" horiz-adv-x="1077" d="M12 0l412 1425h225l414 -1425h-248l-80 307h-395q-33 -135 -84 -307h-244zM168 1579q88 190 227 190q49 0 132 -43t114 -43q55 0 121 89l115 -68q-88 -190 -218 -191q-51 0 -136 42t-117 42q-59 0 -127 -84q-18 10 -55.5 33t-55.5 33zM391 516h291l-72 285 q-4 25 -33.5 151.5t-33.5 149.5h-11l-67 -299z" />
<glyph unicode="&#xc4;" horiz-adv-x="1077" d="M12 0l412 1425h225l414 -1425h-248l-80 307h-395q-33 -135 -84 -307h-244zM240 1520v221h221v-221h-221zM391 516h291l-72 285q-4 25 -33.5 151.5t-33.5 149.5h-11l-67 -299zM612 1520v221h217v-221h-217z" />
<glyph unicode="&#xc5;" horiz-adv-x="1077" d="M12 0l412 1425h225l414 -1425h-248l-80 307h-395q-33 -135 -84 -307h-244zM332 1640q0 84 60.5 142.5t146.5 58.5q84 0 143 -58.5t59 -142.5q0 -82 -59 -139t-143 -57q-86 0 -146.5 57t-60.5 139zM391 516h291l-72 285q-4 25 -33.5 151.5t-33.5 149.5h-11l-67 -299z M455 1640.5q0 -32.5 24.5 -55t59 -22.5t58.5 22.5t24 55t-24 56t-58.5 23.5t-59 -23.5t-24.5 -56z" />
<glyph unicode="&#xc6;" horiz-adv-x="1708" d="M35 0q59 119 335.5 713t334.5 712h927v-217h-561v-381h481v-213h-481v-391h561v-223h-794v350h-387q-16 -33 -81 -175t-81 -175h-254zM543 563h295v643h-7q-29 -59 -144 -321.5t-144 -321.5z" />
<glyph unicode="&#xc7;" horiz-adv-x="1007" d="M96 442v553q0 182 114 311.5t325 129.5q166 0 276.5 -87t144.5 -229l-223 -73q-14 68 -64.5 115.5t-133.5 47.5q-98 0 -150.5 -62.5t-52.5 -143.5v-568q0 -96 52 -159.5t151 -63.5q76 0 129 44t67 118l223 -72q-33 -141 -136 -223t-253 -90l-22 -74q98 -10 142 -61.5 t44 -112.5q0 -70 -52 -121t-155 -51q-123 0 -200 41q6 16 18 50t20 50q61 -31 138 -30q35 0 58.5 19t23.5 48q0 70 -84 70q-16 0 -25 -2q-8 8 -26.5 20t-28.5 19l43 139q-176 23 -269.5 145.5t-93.5 302.5z" />
<glyph unicode="&#xc8;" horiz-adv-x="968" d="M129 0v1425h793v-217h-560v-381h482v-213h-482v-391h560v-223h-793zM174 1704l148 166l327 -258l-90 -113z" />
<glyph unicode="&#xc9;" horiz-adv-x="968" d="M129 0v1425h793v-217h-560v-381h482v-213h-482v-391h560v-223h-793zM354 1597l326 254l141 -163l-379 -201z" />
<glyph unicode="&#xca;" horiz-adv-x="968" d="M129 0v1425h793v-217h-560v-381h482v-213h-482v-391h560v-223h-793zM168 1581l289 260h141l281 -258l-86 -92l-271 164l-270 -164z" />
<glyph unicode="&#xcb;" horiz-adv-x="968" d="M129 0v1425h793v-217h-560v-381h482v-213h-482v-391h560v-223h-793zM221 1526v221h217v-221h-217zM592 1526v221h219v-221h-219z" />
<glyph unicode="&#xcc;" horiz-adv-x="497" d="M-111 1704l148 166l328 -258l-91 -113zM131 0v1425h236v-1425h-236z" />
<glyph unicode="&#xcd;" horiz-adv-x="497" d="M131 0v1425h236v-1425h-236zM135 1597l326 254l141 -163l-379 -201z" />
<glyph unicode="&#xce;" horiz-adv-x="497" d="M-106 1581l288 260h142l280 -258l-86 -92l-270 164l-271 -164zM131 0v1425h236v-1425h-236z" />
<glyph unicode="&#xcf;" horiz-adv-x="497" d="M-49 1526v221h217v-221h-217zM131 0v1425h236v-1425h-236zM322 1526v221h219v-221h-219z" />
<glyph unicode="&#xd0;" horiz-adv-x="1099" d="M23 651v156h104v618h436q307 0 395 -229q39 -100 39 -440v-93v-92q0 -20 -1 -73.5t-3 -77t-6 -61t-11 -63.5t-15 -50q-94 -246 -424 -246h-410v651h-104zM362 217h168q125 0 178.5 65.5t53.5 194.5v418q0 313 -234 313h-166v-401h220v-156h-220v-434z" />
<glyph unicode="&#xd1;" horiz-adv-x="1185" d="M125 0v1425h215l315 -581l168 -320l8 2v899h234v-1425h-213l-336 612l-149 293l-7 -2v-903h-235zM227 1575q88 190 228 190q49 0 132 -43t113 -43q55 0 121 88l115 -67q-88 -190 -217 -191q-51 0 -136 42t-118 42q-59 0 -127 -84q-18 10 -55.5 33t-55.5 33z" />
<glyph unicode="&#xd2;" horiz-adv-x="1056" d="M90 457v538q0 80 24.5 155t74 140.5t137.5 105.5t202 40q211 0 324 -131t113 -310v-563q0 -203 -121 -323.5t-316 -120.5q-221 0 -329.5 132t-108.5 337zM227 1704l148 166l327 -258l-90 -113zM322 997l2 -544q0 -111 50 -176.5t156 -65.5q82 0 139.5 56.5t57.5 146.5 v585q0 72 -47 141.5t-152 69.5q-106 0 -156 -66.5t-50 -146.5z" />
<glyph unicode="&#xd3;" horiz-adv-x="1056" d="M90 457v538q0 80 24.5 155t74 140.5t137.5 105.5t202 40q211 0 324 -131t113 -310v-563q0 -203 -121 -323.5t-316 -120.5q-221 0 -329.5 132t-108.5 337zM322 997l2 -544q0 -111 50 -176.5t156 -65.5q82 0 139.5 56.5t57.5 146.5v585q0 72 -47 141.5t-152 69.5 q-106 0 -156 -66.5t-50 -146.5zM381 1597l326 254l141 -163l-379 -201z" />
<glyph unicode="&#xd4;" horiz-adv-x="1056" d="M90 457v538q0 80 24.5 155t74 140.5t137.5 105.5t202 40q211 0 324 -131t113 -310v-563q0 -203 -121 -323.5t-316 -120.5q-221 0 -329.5 132t-108.5 337zM168 1581l289 260h141l281 -258l-86 -92l-271 164l-270 -164zM322 997l2 -544q0 -111 50 -176.5t156 -65.5 q82 0 139.5 56.5t57.5 146.5v585q0 72 -47 141.5t-152 69.5q-106 0 -156 -66.5t-50 -146.5z" />
<glyph unicode="&#xd5;" horiz-adv-x="1056" d="M90 457v538q0 80 24.5 155t74 140.5t137.5 105.5t202 40q211 0 324 -131t113 -310v-563q0 -203 -121 -323.5t-316 -120.5q-221 0 -329.5 132t-108.5 337zM170 1579q88 190 227 190q49 0 132 -43t114 -43q55 0 121 89l115 -68q-88 -190 -217 -191q-51 0 -136.5 42 t-117.5 42q-59 0 -127 -84q-18 10 -55.5 33t-55.5 33zM322 997l2 -544q0 -111 50 -176.5t156 -65.5q82 0 139.5 56.5t57.5 146.5v585q0 72 -47 141.5t-152 69.5q-106 0 -156 -66.5t-50 -146.5z" />
<glyph unicode="&#xd6;" horiz-adv-x="1056" d="M90 457v538q0 80 24.5 155t74 140.5t137.5 105.5t202 40q211 0 324 -131t113 -310v-563q0 -203 -121 -323.5t-316 -120.5q-221 0 -329.5 132t-108.5 337zM236 1520v221h221v-221h-221zM322 997l2 -544q0 -111 50 -176.5t156 -65.5q82 0 139.5 56.5t57.5 146.5v585 q0 72 -47 141.5t-152 69.5q-106 0 -156 -66.5t-50 -146.5zM608 1520v221h217v-221h-217z" />
<glyph unicode="&#xd7;" horiz-adv-x="997" d="M84 299l301 299l-299 299q14 14 41 40t47.5 47.5t38.5 39.5l297 -301l299 297l127 -131l-297 -295l297 -301l-127 -125l-297 299l-301 -295l-40 40l-47 47z" />
<glyph unicode="&#xd8;" horiz-adv-x="1056" d="M80 43l76 137q-66 113 -66 277v538q0 80 24.5 155t74 140.5t137.5 105.5t202 40q162 0 275 -88l49 88l102 -62l-65 -117q76 -115 76 -262v-563q0 -203 -121 -323.5t-316 -120.5q-182 0 -292 94l-58 -102zM322 997l2 -516l360 654q-51 76 -156 75q-106 0 -156 -66.5 t-50 -146.5zM356 301q53 -90 174 -90q82 0 139.5 56.5t57.5 146.5v551z" />
<glyph unicode="&#xd9;" horiz-adv-x="1095" d="M111 442v983h233v-989q0 -96 54.5 -159.5t152.5 -63.5q86 0 142.5 57.5t56.5 151.5v1003h237v-993q0 -203 -121 -323.5t-315 -120.5q-213 0 -326.5 127.5t-113.5 326.5zM238 1704l147 166l328 -258l-90 -113z" />
<glyph unicode="&#xda;" horiz-adv-x="1095" d="M111 442v983h233v-989q0 -96 54.5 -159.5t152.5 -63.5q86 0 142.5 57.5t56.5 151.5v1003h237v-993q0 -203 -121 -323.5t-315 -120.5q-213 0 -326.5 127.5t-113.5 326.5zM375 1597l325 254l142 -163l-379 -201z" />
<glyph unicode="&#xdb;" horiz-adv-x="1095" d="M111 442v983h233v-989q0 -96 54.5 -159.5t152.5 -63.5q86 0 142.5 57.5t56.5 151.5v1003h237v-993q0 -203 -121 -323.5t-315 -120.5q-213 0 -326.5 127.5t-113.5 326.5zM180 1581l289 260h141l281 -258l-86 -92l-270 164l-271 -164z" />
<glyph unicode="&#xdc;" horiz-adv-x="1095" d="M111 442v983h233v-989q0 -96 54.5 -159.5t152.5 -63.5q86 0 142.5 57.5t56.5 151.5v1003h237v-993q0 -203 -121 -323.5t-315 -120.5q-213 0 -326.5 127.5t-113.5 326.5zM256 1520v221h221v-221h-221zM629 1520v221h217v-221h-217z" />
<glyph unicode="&#xdd;" horiz-adv-x="974" d="M12 1427h254q10 -31 55.5 -148.5t67.5 -180.5q16 -43 47 -135l45 -136h13q20 59 96 275l125 323h248l-361 -843v-582h-229v582zM330 1597l325 254l142 -163l-379 -201z" />
<glyph unicode="&#xde;" horiz-adv-x="1028" d="M129 0v1456h233l-2 -289h197q205 0 320.5 -110.5t115.5 -329.5q0 -193 -109.5 -315.5t-314.5 -122.5h-209l2 -289h-233zM360 508h197q100 0 152.5 59.5t52.5 163.5q0 219 -207 219h-195v-442z" />
<glyph unicode="&#xdf;" horiz-adv-x="966" d="M106 0v1077q0 195 91.5 302.5t277.5 107.5q176 0 266 -96.5t90 -251.5q0 -213 -126 -275v-4q59 -25 96 -66.5t51 -101t18 -102.5t4 -113q0 -82 -7 -146.5t-30.5 -131t-61.5 -110.5t-105.5 -71.5t-157.5 -27.5q-37 0 -55 2v188h20q57 0 92 24.5t50.5 79t18.5 99.5t3 127 q0 252 -143 252h-17v178h13q117 0 116 166q0 39 -8 73.5t-41 69.5t-86 35q-84 0 -112.5 -54t-28.5 -147v-1083h-228z" />
<glyph unicode="&#xe0;" horiz-adv-x="909" d="M70 295q0 137 88 224t260 87h176v92q0 55 -37 89t-113 34q-129 0 -176 -90q-131 78 -168 105q92 188 349 188q373 0 372 -315v-709h-227v78l-8 4q-70 -92 -224 -92q-145 0 -218.5 82t-73.5 223zM219 1468l203 78l172 -370l-129 -64zM289 309q0 -51 35.5 -83.5 t109.5 -32.5q70 0 115 35.5t45 107.5v98h-162q-143 0 -143 -125z" />
<glyph unicode="&#xe1;" horiz-adv-x="909" d="M70 295q0 137 88 224t260 87h176v92q0 55 -37 89t-113 34q-129 0 -176 -90q-131 78 -168 105q92 188 349 188q373 0 372 -315v-709h-227v78l-8 4q-70 -92 -224 -92q-145 0 -218.5 82t-73.5 223zM289 309q0 -51 35.5 -83.5t109.5 -32.5q70 0 115 35.5t45 107.5v98h-162 q-143 0 -143 -125zM389 1169l168 377l201 -76l-238 -358z" />
<glyph unicode="&#xe2;" horiz-adv-x="909" d="M70 295q0 137 88 224t260 87h176v92q0 55 -37 89t-113 34q-129 0 -176 -90q-131 78 -168 105q92 188 349 188q373 0 372 -315v-709h-227v78l-8 4q-70 -92 -224 -92q-145 0 -218.5 82t-73.5 223zM113 1178l288 311h146l276 -307l-94 -86l-262 204q-6 -4 -127 -99 t-135 -105zM289 309q0 -51 35.5 -83.5t109.5 -32.5q70 0 115 35.5t45 107.5v98h-162q-143 0 -143 -125z" />
<glyph unicode="&#xe3;" horiz-adv-x="909" d="M70 295q0 137 88 224t260 87h176v92q0 55 -37 89t-113 34q-129 0 -176 -90q-131 78 -168 105q92 188 349 188q373 0 372 -315v-709h-227v78l-8 4q-70 -92 -224 -92q-145 0 -218.5 82t-73.5 223zM117 1231q88 190 227 190q49 0 132 -43t114 -43q55 0 121 88l114 -67 q-88 -190 -217 -191q-51 0 -136 42t-118 42q-59 0 -127 -84q-18 10 -55 33t-55 33zM289 309q0 -51 35.5 -83.5t109.5 -32.5q70 0 115 35.5t45 107.5v98h-162q-143 0 -143 -125z" />
<glyph unicode="&#xe4;" horiz-adv-x="909" d="M70 295q0 137 88 224t260 87h176v92q0 55 -37 89t-113 34q-129 0 -176 -90q-131 78 -168 105q92 188 349 188q373 0 372 -315v-709h-227v78l-8 4q-70 -92 -224 -92q-145 0 -218.5 82t-73.5 223zM176 1178v221h217v-221h-217zM289 309q0 -51 35.5 -83.5t109.5 -32.5 q70 0 115 35.5t45 107.5v98h-162q-143 0 -143 -125zM547 1178v221h219v-221h-219z" />
<glyph unicode="&#xe5;" horiz-adv-x="909" d="M70 295q0 137 88 224t260 87h176v92q0 55 -37 89t-113 34q-129 0 -176 -90q-131 78 -168 105q92 188 349 188q373 0 372 -315v-709h-227v78l-8 4q-70 -92 -224 -92q-145 0 -218.5 82t-73.5 223zM264 1296q0 84 60.5 142.5t146.5 58.5q84 0 143.5 -58.5t59.5 -142.5 q0 -82 -59.5 -139t-143.5 -57q-86 0 -146.5 57t-60.5 139zM289 309q0 -51 35.5 -83.5t109.5 -32.5q70 0 115 35.5t45 107.5v98h-162q-143 0 -143 -125zM387 1296.5q0 -32.5 24.5 -55t59.5 -22.5t58.5 22.5t23.5 55t-23.5 56t-58.5 23.5t-59.5 -23.5t-24.5 -56z" />
<glyph unicode="&#xe6;" horiz-adv-x="1431" d="M70 293q0 139 88 226t260 87h176v82q0 55 -40 90t-112 35q-135 0 -174 -82q-23 12 -168 105q92 188 346 188q207 0 285 -98q82 100 248 100q209 0 294 -131t85 -369v-90h-531q0 -117 34 -179t126 -62q102 0 162 96l186 -103q-90 -199 -340 -198q-215 0 -307 129 q-127 -129 -326 -129q-145 0 -218.5 82t-73.5 221zM287 309q0 -53 35.5 -86t109.5 -33q72 0 117 36t45 108v100h-162q-145 0 -145 -125zM829 604h299q0 213 -151 213q-140 0 -148 -213z" />
<glyph unicode="&#xe7;" horiz-adv-x="827" d="M61 514q0 512 390 512q119 0 208 -55.5t127 -155.5q-12 -8 -96 -51t-94 -49q-45 100 -137 100q-100 0 -135 -76.5t-35 -226.5q0 -152 35.5 -232.5t132.5 -80.5q92 0 139 96q12 -8 97 -50t95 -48q-84 -195 -311 -205l-24 -76q98 -10 142 -61.5t44 -112.5q0 -70 -52 -121 t-155 -51q-123 0 -201 41q6 16 18.5 50t20.5 50q61 -31 138 -30q35 0 58 19t23 48q0 70 -83 70q-16 0 -25 -2q-8 8 -26.5 20t-28.5 19l43 141q-168 27 -238 160t-70 358z" />
<glyph unicode="&#xe8;" horiz-adv-x="909" d="M74 506q0 520 383 520q377 0 377 -461v-119h-531q0 -252 160 -251q96 0 162 102q158 -84 186 -100q-45 -98 -137 -152.5t-207 -54.5q-211 0 -302 125t-91 391zM176 1468l203 78l172 -370l-129 -64zM305 604h297q0 213 -149 213q-140 0 -148 -213z" />
<glyph unicode="&#xe9;" horiz-adv-x="909" d="M74 506q0 520 383 520q377 0 377 -461v-119h-531q0 -252 160 -251q96 0 162 102q158 -84 186 -100q-45 -98 -137 -152.5t-207 -54.5q-211 0 -302 125t-91 391zM305 604h297q0 213 -149 213q-140 0 -148 -213zM346 1169l168 377l201 -76l-238 -358z" />
<glyph unicode="&#xea;" horiz-adv-x="909" d="M74 506q0 520 383 520q377 0 377 -461v-119h-531q0 -252 160 -251q96 0 162 102q158 -84 186 -100q-45 -98 -137 -152.5t-207 -54.5q-211 0 -302 125t-91 391zM100 1178l289 311h146l276 -307l-94 -86l-262 204q-6 -4 -127 -99t-135 -105zM305 604h297q0 213 -149 213 q-140 0 -148 -213z" />
<glyph unicode="&#xeb;" horiz-adv-x="909" d="M74 506q0 520 383 520q377 0 377 -461v-119h-531q0 -252 160 -251q96 0 162 102q158 -84 186 -100q-45 -98 -137 -152.5t-207 -54.5q-211 0 -302 125t-91 391zM164 1178v221h217v-221h-217zM305 604h297q0 213 -149 213q-140 0 -148 -213zM535 1178v221h219v-221h-219z " />
<glyph unicode="&#xec;" horiz-adv-x="460" d="M-68 1468l203 78l172 -370l-129 -64zM117 0v1014h227v-1014h-227z" />
<glyph unicode="&#xed;" horiz-adv-x="460" d="M117 0v1014h227v-1014h-227zM129 1169l168 377l201 -76l-238 -358z" />
<glyph unicode="&#xee;" horiz-adv-x="608" d="M-51 1178l289 311h145l276 -307l-94 -86l-262 204q-6 -4 -127 -99t-135 -105zM188 0v1014h228v-1014h-228z" />
<glyph unicode="&#xef;" horiz-adv-x="548" d="M-20 1178v221h217v-221h-217zM160 0v1014h227v-1014h-227zM350 1178v221h219v-221h-219z" />
<glyph unicode="&#xf0;" horiz-adv-x="931" d="M68 469q0 174 41 289q78 219 321 219q53 0 118.5 -25.5t98.5 -74.5h6q-8 184 -53 266l-117 -90q-4 4 -27.5 36.5t-37.5 49.5l117 88q-78 78 -250 104l24 166q258 -20 379 -149l131 102l72 -82q-90 -70 -135 -102q96 -139 96 -629q0 -362 -109 -512q-96 -137 -303 -137 q-209 0 -290.5 125t-81.5 356zM295 471q0 -135 35 -206.5t119 -71.5q78 0 116.5 67.5t38.5 231.5q0 147 -36 212.5t-117 65.5q-74 0 -114 -62.5t-42 -236.5z" />
<glyph unicode="&#xf1;" horiz-adv-x="940" d="M82 1231q88 190 227 190q49 0 132 -43t114 -43q55 0 121 88l115 -67q-88 -190 -218 -191q-51 0 -136 42t-118 42q-59 0 -126 -84q-18 10 -55.5 33t-55.5 33zM98 0v1014h228v-99h6q88 109 219 109q135 0 212 -83t77 -226v-715h-226v651q0 74 -39.5 115t-103.5 41 q-66 0 -106.5 -43t-40.5 -117v-647h-226z" />
<glyph unicode="&#xf2;" horiz-adv-x="919" d="M78 502q0 223 41 319q90 207 348 207q229 0 321 -182q49 -100 50 -342q0 -215 -43 -318q-78 -201 -349 -200q-209 0 -301 149q-67 111 -67 367zM184 1468l203 78l172 -370l-129 -64zM303 492q0 -147 21 -205q35 -92 133 -92q113 0 141 116q14 55 14 209q0 143 -20 201 q-35 98 -129 98q-102 0 -135 -92q-25 -65 -25 -235z" />
<glyph unicode="&#xf3;" horiz-adv-x="919" d="M78 502q0 223 41 319q90 207 348 207q229 0 321 -182q49 -100 50 -342q0 -215 -43 -318q-78 -201 -349 -200q-209 0 -301 149q-67 111 -67 367zM303 492q0 -147 21 -205q35 -92 133 -92q113 0 141 116q14 55 14 209q0 143 -20 201q-35 98 -129 98q-102 0 -135 -92 q-25 -65 -25 -235zM342 1169l168 377l201 -76l-238 -358z" />
<glyph unicode="&#xf4;" horiz-adv-x="919" d="M78 502q0 223 41 319q90 207 348 207q229 0 321 -182q49 -100 50 -342q0 -215 -43 -318q-78 -201 -349 -200q-209 0 -301 149q-67 111 -67 367zM100 1178l289 311h146l276 -307l-94 -86l-262 204q-6 -4 -127 -99t-135 -105zM303 492q0 -147 21 -205q35 -92 133 -92 q113 0 141 116q14 55 14 209q0 143 -20 201q-35 98 -129 98q-102 0 -135 -92q-25 -65 -25 -235z" />
<glyph unicode="&#xf5;" horiz-adv-x="919" d="M78 502q0 223 41 319q90 207 348 207q229 0 321 -182q49 -100 50 -342q0 -215 -43 -318q-78 -201 -349 -200q-209 0 -301 149q-67 111 -67 367zM102 1231q88 190 228 190q49 0 132 -43t113 -43q55 0 121 88l115 -67q-88 -190 -217 -191q-51 0 -136 42t-118 42 q-59 0 -127 -84q-18 10 -55.5 33t-55.5 33zM303 492q0 -147 21 -205q35 -92 133 -92q113 0 141 116q14 55 14 209q0 143 -20 201q-35 98 -129 98q-102 0 -135 -92q-25 -65 -25 -235z" />
<glyph unicode="&#xf6;" horiz-adv-x="919" d="M78 502q0 223 41 319q90 207 348 207q229 0 321 -182q49 -100 50 -342q0 -215 -43 -318q-78 -201 -349 -200q-209 0 -301 149q-67 111 -67 367zM160 1178v221h217v-221h-217zM303 492q0 -147 21 -205q35 -92 133 -92q113 0 141 116q14 55 14 209q0 143 -20 201 q-35 98 -129 98q-102 0 -135 -92q-25 -65 -25 -235zM530 1178v221h220v-221h-220z" />
<glyph unicode="&#xf7;" d="M37 514v178h881v-178h-881zM340 231q0 55 42 96.5t99.5 41.5t97 -41t39.5 -97q0 -57 -39.5 -98t-97.5 -41q-59 0 -100 41t-41 98zM340 971q0 57 41 97t100 40q57 0 97 -40t40 -97q0 -55 -39.5 -96t-97 -41t-99.5 41t-42 96z" />
<glyph unicode="&#xf8;" horiz-adv-x="919" d="M78 502q0 223 41 319q90 207 348 207q127 0 211 -55l43 71l82 -45l-55 -92q12 -14 40 -61q49 -100 50 -342q0 -215 -43 -318q-78 -201 -349 -200q-125 0 -213 55l-36 -64l-78 46l47 81q-8 10 -21 31q-67 111 -67 367zM303 492q0 -102 6 -146l252 428q-37 45 -98 45 q-102 0 -135 -92q-25 -65 -25 -235zM350 238q37 -43 107 -43q113 0 141 116q14 55 14 209q0 90 -8 146z" />
<glyph unicode="&#xf9;" horiz-adv-x="946" d="M100 297v715h226v-652q0 -74 41 -115.5t102 -41.5q147 0 147 215v594h226v-1012h-226v94q-2 0 -4 1t-4 1q-80 -106 -217 -106t-214 82t-77 225zM211 1468l203 78l172 -370l-129 -64z" />
<glyph unicode="&#xfa;" horiz-adv-x="946" d="M100 297v715h226v-652q0 -74 41 -115.5t102 -41.5q147 0 147 215v594h226v-1012h-226v94q-2 0 -4 1t-4 1q-80 -106 -217 -106t-214 82t-77 225zM352 1169l168 377l201 -76l-238 -358z" />
<glyph unicode="&#xfb;" horiz-adv-x="946" d="M100 297v715h226v-652q0 -74 41 -115.5t102 -41.5q147 0 147 215v594h226v-1012h-226v94q-2 0 -4 1t-4 1q-80 -106 -217 -106t-214 82t-77 225zM119 1178l289 311h145l276 -307l-94 -86l-262 204q-6 -4 -127 -99t-135 -105z" />
<glyph unicode="&#xfc;" horiz-adv-x="946" d="M100 297v715h226v-652q0 -74 41 -115.5t102 -41.5q147 0 147 215v594h226v-1012h-226v94q-2 0 -4 1t-4 1q-80 -106 -217 -106t-214 82t-77 225zM172 1178v221h217v-221h-217zM543 1178v221h219v-221h-219z" />
<glyph unicode="&#xfd;" horiz-adv-x="845" d="M2 1014h242l98 -367l80 -311h8l78 311l98 367h238l-373 -1204q-70 -221 -289 -222h-76v195h54q90 0 123 125l36 131zM332 1169l168 377l200 -76l-237 -358z" />
<glyph unicode="&#xfe;" horiz-adv-x="921" d="M94 -410v1856h225v-516h3q2 -2 4 -2q74 96 204 96q100 0 167 -44t96.5 -126t40 -162t10.5 -188q0 -106 -12.5 -187t-44 -161t-98 -123t-167.5 -43q-123 0 -196 92h-2l-5 -2v-490h-225zM319 496q0 -59 4.5 -101.5t17.5 -90.5t45 -73.5t79 -25.5t78.5 24.5t46 70.5t19.5 93 t5 111q0 152 -28.5 229.5t-118.5 77.5q-51 0 -83 -24.5t-45 -77t-16.5 -95t-3.5 -118.5z" />
<glyph unicode="&#xff;" horiz-adv-x="845" d="M2 1014h242l98 -367l80 -311h8l78 311l98 367h238l-373 -1204q-70 -221 -289 -222h-76v195h54q90 0 123 125l36 131zM127 1178v221h217v-221h-217zM498 1178v221h219v-221h-219z" />
<glyph unicode="&#x152;" horiz-adv-x="1492" d="M90 455v542q0 80 24.5 154t74 139.5t137.5 105.5t202 40q51 0 107 -11h786v-217h-559v-381h479v-213h-479v-391h559v-223h-778q-53 -12 -115 -12q-221 0 -329.5 132t-108.5 335zM324 451q0 -240 204 -240q51 0 101 27v948q-45 25 -101 24q-102 0 -153 -64.5t-51 -139.5 v-555z" />
<glyph unicode="&#x153;" horiz-adv-x="1447" d="M76 502q0 219 43 319q90 205 348 205q170 0 268 -104q92 104 264 104q213 0 295 -128t82 -355v-97h-530q0 -53 6 -91t20.5 -77.5t48 -61t85.5 -21.5q96 0 161 102q158 -84 187 -100q-45 -98 -137.5 -152.5t-206.5 -54.5q-193 0 -281 102q-96 -106 -285 -106 q-182 0 -276 114q-57 72 -74.5 161t-17.5 241zM301 489q0 -150 23 -202q39 -94 133 -94q111 0 141 122q14 55 14 205q0 143 -20 201q-39 98 -129 98q-98 0 -137 -92q-25 -60 -25 -238zM848 604h297q0 213 -150 213q-139 0 -147 -213z" />
<glyph unicode="&#x178;" horiz-adv-x="974" d="M12 1427h254q10 -31 55.5 -148.5t67.5 -180.5q16 -43 47 -135l45 -136h13q20 59 96 275l125 323h248l-361 -843v-582h-229v582zM195 1520v221h221v-221h-221zM567 1520v221h217v-221h-217z" />
<glyph unicode="&#x2c6;" horiz-adv-x="964" d="M139 1178l289 311h145l277 -307l-94 -86l-262 204q-6 -4 -127 -99t-136 -105z" />
<glyph unicode="&#x2dc;" horiz-adv-x="886" d="M94 1231q88 190 228 190q49 0 132 -43t113 -43q55 0 121 88l115 -67q-88 -190 -217 -191q-51 0 -136 42t-118 42q-59 0 -127 -84q-18 10 -55.5 33t-55.5 33z" />
<glyph unicode="&#x2000;" horiz-adv-x="933" />
<glyph unicode="&#x2001;" horiz-adv-x="1869" />
<glyph unicode="&#x2002;" horiz-adv-x="933" />
<glyph unicode="&#x2003;" horiz-adv-x="1869" />
<glyph unicode="&#x2004;" horiz-adv-x="622" />
<glyph unicode="&#x2005;" horiz-adv-x="466" />
<glyph unicode="&#x2006;" horiz-adv-x="311" />
<glyph unicode="&#x2007;" horiz-adv-x="311" />
<glyph unicode="&#x2008;" horiz-adv-x="233" />
<glyph unicode="&#x2009;" horiz-adv-x="372" />
<glyph unicode="&#x200a;" horiz-adv-x="102" />
<glyph unicode="&#x2010;" horiz-adv-x="800" d="M100 436v201h611v-201h-611z" />
<glyph unicode="&#x2011;" horiz-adv-x="800" d="M100 436v201h611v-201h-611z" />
<glyph unicode="&#x2012;" horiz-adv-x="800" d="M100 436v201h611v-201h-611z" />
<glyph unicode="&#x2013;" horiz-adv-x="1024" d="M41 461v196h938v-196h-938z" />
<glyph unicode="&#x2014;" horiz-adv-x="2048" d="M41 461v196h1964v-196h-1964z" />
<glyph unicode="&#x2018;" horiz-adv-x="526" d="M127 934v262l137 277h125l-65 -269h57v-270h-254z" />
<glyph unicode="&#x2019;" horiz-adv-x="526" d="M127 934l66 268h-60v273h256v-265l-137 -276h-125z" />
<glyph unicode="&#x201a;" horiz-adv-x="501" d="M115 -274l65 268h-59v270h254v-262l-135 -276h-125z" />
<glyph unicode="&#x201c;" horiz-adv-x="737" d="M76 934v262l137 277h123l-64 -269h58v-270h-254zM403 934v262l136 277h125l-66 -269h59v-270h-254z" />
<glyph unicode="&#x201d;" horiz-adv-x="737" d="M80 934l67 268h-59v273h254v-265l-135 -276h-127zM410 934l65 268h-59v273h254v-265l-135 -276h-125z" />
<glyph unicode="&#x201e;" horiz-adv-x="897" d="M115 -274l65 268h-59v270h254v-262l-135 -276h-125zM514 -274l66 268h-60v270h254v-262l-135 -276h-125z" />
<glyph unicode="&#x2022;" horiz-adv-x="901" d="M170 573.5q0 120.5 84 205.5t202.5 85t203.5 -85t85 -206q0 -119 -83.5 -203.5t-204.5 -84.5q-119 0 -203 84t-84 204.5z" />
<glyph unicode="&#x2026;" horiz-adv-x="1681" d="M137 0v266h254v-266h-254zM715 0v266h254v-266h-254zM1288 0v266h252v-266h-252z" />
<glyph unicode="&#x202f;" horiz-adv-x="372" />
<glyph unicode="&#x2039;" horiz-adv-x="675" d="M94 479l254 402h217l-250 -402l250 -403h-217z" />
<glyph unicode="&#x203a;" horiz-adv-x="665" d="M94 76l250 403l-250 402h217l254 -402l-254 -403h-217z" />
<glyph unicode="&#x205f;" horiz-adv-x="466" />
<glyph unicode="&#x20ac;" d="M37 535v129h80v96h-80v129h80v110q0 182 106.5 309.5t306.5 127.5q158 0 264.5 -89.5t137.5 -232.5l-215 -65q-16 68 -62.5 115.5t-124.5 47.5q-94 0 -141 -60t-47 -144v-119h336v-129h-336v-96h336v-129h-336v-109q0 -96 47 -156.5t141 -60.5q72 0 122 44t67 120 l213 -64q-33 -150 -140.5 -235.5t-261.5 -85.5q-201 0 -307 126t-106 326v95h-80z" />
<glyph unicode="&#x2122;" horiz-adv-x="1665" d="M80 1274v151h588v-151h-213v-678h-162v678h-213zM762 596v827h178l109 -247q20 -43 55 -125t47 -111h2q53 129 209 483h176v-827h-162v491h-4q-31 -76 -96 -227l-72 -162h-112q-23 55 -72 162l-96 230h-4v-494h-158z" />
<glyph unicode="&#xe000;" horiz-adv-x="1014" d="M0 1015h1015v-1015h-1015v1015z" />
<glyph unicode="&#xfb01;" horiz-adv-x="991" d="M35 834v180h108v155q0 170 103.5 253t265.5 83q211 0 342 -125l-127 -161q-84 78 -207 77q-150 0 -149 -139v-143h501v-1014h-225v834h-276v-834h-228v834h-108z" />
<glyph unicode="&#xfb02;" horiz-adv-x="1040" d="M35 834v180h108v151q0 172 96.5 255t258.5 83q190 0 379 -73v-1127q0 -57 21.5 -80.5t68.5 -23.5h32v-205h-63q-141 0 -213 61.5t-72 212.5v1004q-72 25 -131 24q-150 0 -149 -145v-137h184v-180h-184v-834h-228v834h-108z" />
<glyph unicode="&#xfb03;" horiz-adv-x="1490" d="M35 834v180h108v96q0 184 99.5 272t269.5 88q127 0 225 -49q98 92 277 92q221 0 344 -137q-20 -27 -133 -159q-82 88 -203 88q-150 0 -150 -140v-151h502v-1014h-225v834h-277v-834h-227v834h-276v-834h-226v834h-108zM369 1014h276v170q0 14 4 47q-61 33 -129 33 q-152 0 -151 -166v-84z" />
<glyph unicode="&#xfb04;" horiz-adv-x="1536" d="M35 834v178h106v96q0 184 99.5 272t269.5 88q129 0 225 -49q98 92 271 92q186 0 366 -71v-1139q0 -57 21.5 -80.5t68.5 -23.5h33v-203h-63q-141 0 -213 61.5t-72 212.5v1012q-72 25 -127 25q-150 0 -150 -146v-147h181v-178h-181v-834h-227v834h-274v-834h-228v834h-106z M369 1012h274v155q0 47 2 66q-51 29 -121 29q-90 0 -122.5 -43t-32.5 -115v-92z" />
</font>
</defs>
</svg>
